<svg fill="none" height="24" viewBox="0 0 24 24" width="24" xmlns="http://www.w3.org/2000/svg"><path d="m19.0413 19.0413h-2.9635v-4.6409c0-1.1067-.0197-2.5313-1.5412-2.5313-1.5435 0-1.7797 1.2057-1.7797 2.4507v4.7211h-2.96337v-9.54349h2.84487v1.30419h.0399c.5792-.99038 1.6602-1.5841 2.8069-1.54152 3.0035 0 3.5573 1.97562 3.5573 4.54582zm-12.59151-10.84845c-.94342 0-1.72009-.77622-1.72009-1.71964s.77631-1.71973 1.71973-1.71973c.94333 0 1.71955.77613 1.71973 1.71937 0 .94324-.77613 1.71991-1.71937 1.72zm1.48169 10.84845h-2.96651v-9.54389h2.96651zm12.58712-17.0398h-17.04282c-.80002-.00903-1.46603.6415-1.47578 1.44152v17.11358c.00939.8004.67531 1.4517 1.47578 1.4431h17.04282c.8024.0101 1.4707-.641 1.4814-1.4431v-17.11475c-.0107-.80171-.6799-1.45216-1.4814-1.4416z" fill="#0a66c2"/></svg>